<svg width="27" height="32" viewBox="0 0 27 32" fill="none" xmlns="http://www.w3.org/2000/svg">
<path fill-rule="evenodd" clip-rule="evenodd" d="M6.41005 3H4.56276C3.58289 3 2.64316 3.42143 1.95029 4.17157C1.25741 4.92172 0.868164 5.93913 0.868164 7V28C0.868164 29.0609 1.25741 30.0783 1.95029 30.8284C2.64316 31.5786 3.58289 32 4.56276 32H23.0357C24.0156 32 24.9553 31.5786 25.6482 30.8284C26.3411 30.0783 26.7303 29.0609 26.7303 28V7C26.7303 5.93913 26.3411 4.92172 25.6482 4.17157C24.9553 3.42143 24.0156 3 23.0357 3H21.1884V5H23.0357C23.5257 5 23.9955 5.21071 24.342 5.58578C24.6884 5.96086 24.883 6.46957 24.883 7V28C24.883 28.5304 24.6884 29.0391 24.342 29.4142C23.9955 29.7893 23.5257 30 23.0357 30H4.56276C4.07282 30 3.60296 29.7893 3.25652 29.4142C2.91009 29.0391 2.71546 28.5304 2.71546 28V7C2.71546 6.46957 2.91009 5.96086 3.25652 5.58578C3.60296 5.21071 4.07282 5 4.56276 5H6.41005V3Z" fill="#828BAD"/>
<path fill-rule="evenodd" clip-rule="evenodd" d="M16.5702 2H11.0283C10.7833 2 10.5484 2.10536 10.3752 2.29289C10.2019 2.48043 10.1046 2.73478 10.1046 3V5C10.1046 5.26521 10.2019 5.51957 10.3752 5.7071C10.5484 5.89464 10.7833 6 11.0283 6H16.5702C16.8151 6 17.0501 5.89464 17.2233 5.7071C17.3965 5.51957 17.4938 5.26521 17.4938 5V3C17.4938 2.73478 17.3965 2.48043 17.2233 2.29289C17.0501 2.10536 16.8151 2 16.5702 2ZM11.0283 0C10.2934 0 9.58857 0.31607 9.06892 0.878679C8.54926 1.44129 8.25732 2.20435 8.25732 3V5C8.25732 5.79565 8.54926 6.55871 9.06892 7.12132C9.58857 7.68393 10.2934 8 11.0283 8H16.5702C17.3051 8 18.0099 7.68393 18.5295 7.12132C19.0492 6.55871 19.3411 5.79565 19.3411 5V3C19.3411 2.20435 19.0492 1.44129 18.5295 0.878679C18.0099 0.31607 17.3051 0 16.5702 0L11.0283 0Z" fill="#828BAD"/>
<path d="M6.40967 22C6.40967 21.4696 6.60429 20.9609 6.95073 20.5858C7.29717 20.2107 7.76703 20 8.25697 20C8.7469 20 9.21677 20.2107 9.56321 20.5858C9.90964 20.9609 10.1043 21.4696 10.1043 22V24C10.1043 24.5304 9.90964 25.0391 9.56321 25.4142C9.21677 25.7893 8.7469 26 8.25697 26C7.76703 26 7.29717 25.7893 6.95073 25.4142C6.60429 25.0391 6.40967 24.5304 6.40967 24V22ZM17.4935 14C17.4935 13.4696 17.6881 12.9609 18.0345 12.5858C18.381 12.2107 18.8508 12 19.3408 12C19.8307 12 20.3006 12.2107 20.647 12.5858C20.9934 12.9609 21.1881 13.4696 21.1881 14V24C21.1881 24.5304 20.9934 25.0391 20.647 25.4142C20.3006 25.7893 19.8307 26 19.3408 26C18.8508 26 18.381 25.7893 18.0345 25.4142C17.6881 25.0391 17.4935 24.5304 17.4935 24V14ZM11.9516 18C11.9516 17.4696 12.1462 16.9609 12.4926 16.5858C12.8391 16.2107 13.3089 16 13.7989 16C14.2888 16 14.7587 16.2107 15.1051 16.5858C15.4515 16.9609 15.6462 17.4696 15.6462 18V24C15.6462 24.5304 15.4515 25.0391 15.1051 25.4142C14.7587 25.7893 14.2888 26 13.7989 26C13.3089 26 12.8391 25.7893 12.4926 25.4142C12.1462 25.0391 11.9516 24.5304 11.9516 24V18Z" fill="#828BAD"/>
</svg>
