<svg width="123" height="25" viewBox="0 0 123 25" fill="none" xmlns="http://www.w3.org/2000/svg">
<g id="icon-small">
<g id="Logo">
<g id="BeeScientific">
<path d="M20.584 5.256H24.472C25 5.256 25.516 5.31 26.02 5.418C26.524 5.526 26.974 5.706 27.37 5.958C27.766 6.198 28.084 6.516 28.324 6.912C28.576 7.308 28.702 7.8 28.702 8.388C28.702 9.132 28.498 9.75 28.09 10.242C27.694 10.722 27.154 11.064 26.47 11.268V11.304C26.878 11.34 27.256 11.448 27.604 11.628C27.964 11.796 28.27 12.018 28.522 12.294C28.786 12.57 28.99 12.894 29.134 13.266C29.278 13.626 29.35 14.016 29.35 14.436C29.35 15.144 29.2 15.726 28.9 16.182C28.612 16.638 28.228 17.004 27.748 17.28C27.28 17.544 26.746 17.73 26.146 17.838C25.558 17.946 24.97 18 24.382 18H20.584V5.256ZM22.096 10.656H24.184C24.544 10.656 24.892 10.632 25.228 10.584C25.576 10.536 25.888 10.44 26.164 10.296C26.44 10.14 26.662 9.93 26.83 9.666C26.998 9.39 27.082 9.03 27.082 8.586C27.082 8.19 27.004 7.872 26.848 7.632C26.692 7.38 26.482 7.182 26.218 7.038C25.966 6.894 25.672 6.798 25.336 6.75C25.012 6.69 24.682 6.66 24.346 6.66H22.096V10.656ZM22.096 16.596H24.652C25.024 16.596 25.39 16.56 25.75 16.488C26.122 16.404 26.452 16.278 26.74 16.11C27.04 15.93 27.28 15.702 27.46 15.426C27.64 15.138 27.73 14.79 27.73 14.382C27.73 13.938 27.64 13.566 27.46 13.266C27.292 12.966 27.064 12.726 26.776 12.546C26.5 12.366 26.176 12.24 25.804 12.168C25.444 12.096 25.072 12.06 24.688 12.06H22.096V16.596ZM39.1939 16.47C38.6899 17.118 38.1379 17.574 37.5379 17.838C36.9379 18.09 36.2419 18.216 35.4499 18.216C34.7899 18.216 34.1959 18.102 33.6679 17.874C33.1399 17.634 32.6899 17.316 32.3179 16.92C31.9579 16.524 31.6759 16.056 31.4719 15.516C31.2799 14.976 31.1839 14.4 31.1839 13.788C31.1839 13.14 31.2919 12.546 31.5079 12.006C31.7239 11.454 32.0239 10.986 32.4079 10.602C32.7919 10.206 33.2479 9.9 33.7759 9.684C34.3039 9.468 34.8799 9.36 35.5039 9.36C36.0919 9.36 36.6319 9.462 37.1239 9.666C37.6159 9.858 38.0359 10.146 38.3839 10.53C38.7439 10.902 39.0199 11.364 39.2119 11.916C39.4039 12.456 39.4999 13.074 39.4999 13.77V14.22H32.6959C32.7199 14.58 32.8039 14.928 32.9479 15.264C33.1039 15.588 33.3019 15.876 33.5419 16.128C33.7819 16.368 34.0639 16.56 34.3879 16.704C34.7119 16.848 35.0659 16.92 35.4499 16.92C36.0619 16.92 36.5779 16.812 36.9979 16.596C37.4179 16.38 37.7959 16.062 38.1319 15.642L39.1939 16.47ZM37.9879 13.032C37.9639 12.312 37.7299 11.736 37.2859 11.304C36.8419 10.872 36.2299 10.656 35.4499 10.656C34.6699 10.656 34.0399 10.872 33.5599 11.304C33.0799 11.736 32.7919 12.312 32.6959 13.032H37.9879ZM49.1958 16.47C48.6918 17.118 48.1398 17.574 47.5398 17.838C46.9398 18.09 46.2438 18.216 45.4518 18.216C44.7918 18.216 44.1978 18.102 43.6698 17.874C43.1418 17.634 42.6918 17.316 42.3198 16.92C41.9598 16.524 41.6778 16.056 41.4738 15.516C41.2818 14.976 41.1858 14.4 41.1858 13.788C41.1858 13.14 41.2938 12.546 41.5098 12.006C41.7258 11.454 42.0258 10.986 42.4098 10.602C42.7938 10.206 43.2498 9.9 43.7778 9.684C44.3058 9.468 44.8818 9.36 45.5058 9.36C46.0938 9.36 46.6338 9.462 47.1258 9.666C47.6178 9.858 48.0378 10.146 48.3858 10.53C48.7458 10.902 49.0218 11.364 49.2138 11.916C49.4058 12.456 49.5018 13.074 49.5018 13.77V14.22H42.6978C42.7218 14.58 42.8058 14.928 42.9498 15.264C43.1058 15.588 43.3038 15.876 43.5438 16.128C43.7838 16.368 44.0658 16.56 44.3898 16.704C44.7138 16.848 45.0678 16.92 45.4518 16.92C46.0638 16.92 46.5798 16.812 46.9998 16.596C47.4198 16.38 47.7978 16.062 48.1338 15.642L49.1958 16.47ZM47.9898 13.032C47.9658 12.312 47.7318 11.736 47.2878 11.304C46.8438 10.872 46.2318 10.656 45.4518 10.656C44.6718 10.656 44.0418 10.872 43.5618 11.304C43.0818 11.736 42.7938 12.312 42.6978 13.032H47.9898Z" fill="#2E3E77"/>
<path d="M57.9738 7.506C57.7218 7.098 57.3858 6.804 56.9658 6.624C56.5458 6.432 56.1078 6.336 55.6518 6.336C55.3158 6.336 54.9858 6.378 54.6618 6.462C54.3378 6.546 54.0438 6.672 53.7798 6.84C53.5278 7.008 53.3238 7.23 53.1678 7.506C53.0118 7.782 52.9338 8.106 52.9338 8.478C52.9338 8.766 52.9758 9.024 53.0598 9.252C53.1558 9.468 53.3058 9.666 53.5098 9.846C53.7138 10.026 53.9898 10.194 54.3378 10.35C54.6858 10.506 55.1118 10.662 55.6158 10.818C56.1078 10.974 56.5818 11.142 57.0378 11.322C57.5058 11.502 57.9138 11.73 58.2618 12.006C58.6218 12.282 58.9038 12.63 59.1078 13.05C59.3238 13.458 59.4318 13.974 59.4318 14.598C59.4318 15.234 59.3058 15.786 59.0538 16.254C58.8018 16.722 58.4658 17.112 58.0458 17.424C57.6378 17.724 57.1638 17.946 56.6238 18.09C56.0838 18.246 55.5258 18.324 54.9498 18.324C54.5778 18.324 54.2058 18.288 53.8338 18.216C53.4618 18.156 53.1018 18.06 52.7538 17.928C52.4178 17.784 52.0998 17.604 51.7998 17.388C51.4998 17.16 51.2418 16.884 51.0258 16.56L52.3218 15.498C52.5978 15.966 52.9818 16.32 53.4738 16.56C53.9658 16.8 54.4878 16.92 55.0398 16.92C55.3638 16.92 55.6878 16.872 56.0118 16.776C56.3478 16.68 56.6478 16.542 56.9118 16.362C57.1758 16.17 57.3918 15.936 57.5598 15.66C57.7278 15.384 57.8118 15.066 57.8118 14.706C57.8118 14.31 57.7458 13.992 57.6138 13.752C57.4818 13.5 57.2778 13.284 57.0018 13.104C56.7258 12.924 56.3778 12.762 55.9578 12.618C55.5378 12.474 55.0458 12.306 54.4818 12.114C54.0258 11.97 53.6058 11.808 53.2218 11.628C52.8378 11.436 52.5018 11.208 52.2138 10.944C51.9378 10.668 51.7158 10.344 51.5478 9.972C51.3918 9.588 51.3138 9.132 51.3138 8.604C51.3138 7.992 51.4338 7.458 51.6738 7.002C51.9138 6.546 52.2378 6.168 52.6458 5.868C53.0538 5.556 53.5158 5.322 54.0318 5.166C54.5478 5.01 55.0878 4.932 55.6518 4.932C56.3718 4.932 57.0258 5.046 57.6138 5.274C58.2138 5.49 58.7478 5.874 59.2158 6.426L57.9738 7.506ZM67.6698 11.682C67.3698 11.322 67.0458 11.064 66.6978 10.908C66.3498 10.74 65.9658 10.656 65.5458 10.656C65.0778 10.656 64.6638 10.74 64.3038 10.908C63.9438 11.064 63.6438 11.286 63.4038 11.574C63.1758 11.862 63.0018 12.198 62.8818 12.582C62.7618 12.954 62.7018 13.356 62.7018 13.788C62.7018 14.22 62.7678 14.628 62.8998 15.012C63.0438 15.384 63.2358 15.714 63.4758 16.002C63.7278 16.29 64.0278 16.518 64.3758 16.686C64.7238 16.842 65.1138 16.92 65.5458 16.92C66.4698 16.92 67.1838 16.572 67.6878 15.876L68.7318 16.866C68.3238 17.334 67.8438 17.676 67.2918 17.892C66.7398 18.108 66.1578 18.216 65.5458 18.216C64.8978 18.216 64.3038 18.108 63.7638 17.892C63.2238 17.676 62.7618 17.37 62.3778 16.974C62.0058 16.578 61.7118 16.11 61.4958 15.57C61.2918 15.03 61.1898 14.436 61.1898 13.788C61.1898 13.152 61.2918 12.564 61.4958 12.024C61.7118 11.484 62.0118 11.016 62.3958 10.62C62.7798 10.224 63.2358 9.918 63.7638 9.702C64.3038 9.474 64.8978 9.36 65.5458 9.36C66.1698 9.36 66.7578 9.468 67.3098 9.684C67.8738 9.9 68.3658 10.236 68.7858 10.692L67.6698 11.682ZM70.4853 9.576H71.8893V18H70.4853V9.576ZM70.1613 6.282C70.1613 6.006 70.2573 5.766 70.4493 5.562C70.6533 5.358 70.8993 5.256 71.1873 5.256C71.4753 5.256 71.7153 5.358 71.9073 5.562C72.1113 5.766 72.2133 6.006 72.2133 6.282C72.2133 6.582 72.1173 6.828 71.9253 7.02C71.7333 7.212 71.4873 7.308 71.1873 7.308C70.8873 7.308 70.6413 7.212 70.4493 7.02C70.2573 6.828 70.1613 6.582 70.1613 6.282ZM82.2076 16.47C81.7036 17.118 81.1516 17.574 80.5516 17.838C79.9516 18.09 79.2556 18.216 78.4636 18.216C77.8036 18.216 77.2096 18.102 76.6816 17.874C76.1536 17.634 75.7036 17.316 75.3316 16.92C74.9716 16.524 74.6896 16.056 74.4856 15.516C74.2936 14.976 74.1976 14.4 74.1976 13.788C74.1976 13.14 74.3056 12.546 74.5216 12.006C74.7376 11.454 75.0376 10.986 75.4216 10.602C75.8056 10.206 76.2616 9.9 76.7896 9.684C77.3176 9.468 77.8936 9.36 78.5176 9.36C79.1056 9.36 79.6456 9.462 80.1376 9.666C80.6296 9.858 81.0496 10.146 81.3976 10.53C81.7576 10.902 82.0336 11.364 82.2256 11.916C82.4176 12.456 82.5136 13.074 82.5136 13.77V14.22H75.7096C75.7336 14.58 75.8176 14.928 75.9616 15.264C76.1176 15.588 76.3156 15.876 76.5556 16.128C76.7956 16.368 77.0776 16.56 77.4016 16.704C77.7256 16.848 78.0796 16.92 78.4636 16.92C79.0756 16.92 79.5916 16.812 80.0116 16.596C80.4316 16.38 80.8096 16.062 81.1456 15.642L82.2076 16.47ZM81.0016 13.032C80.9776 12.312 80.7436 11.736 80.2996 11.304C79.8556 10.872 79.2436 10.656 78.4636 10.656C77.6836 10.656 77.0536 10.872 76.5736 11.304C76.0936 11.736 75.8056 12.312 75.7096 13.032H81.0016ZM84.6855 11.574C84.6855 11.19 84.6735 10.83 84.6495 10.494C84.6255 10.158 84.6135 9.852 84.6135 9.576H85.9455C85.9455 9.804 85.9515 10.032 85.9635 10.26C85.9755 10.488 85.9815 10.722 85.9815 10.962H86.0175C86.1135 10.758 86.2455 10.56 86.4135 10.368C86.5935 10.176 86.8035 10.008 87.0435 9.864C87.2835 9.708 87.5535 9.588 87.8535 9.504C88.1535 9.408 88.4775 9.36 88.8255 9.36C89.3775 9.36 89.8515 9.444 90.2475 9.612C90.6555 9.78 90.9915 10.014 91.2555 10.314C91.5195 10.614 91.7115 10.98 91.8315 11.412C91.9635 11.832 92.0295 12.294 92.0295 12.798V18H90.6255V12.942C90.6255 12.234 90.4695 11.676 90.1575 11.268C89.8455 10.86 89.3595 10.656 88.6995 10.656C88.2435 10.656 87.8475 10.734 87.5115 10.89C87.1875 11.046 86.9175 11.268 86.7015 11.556C86.4975 11.844 86.3415 12.186 86.2335 12.582C86.1375 12.978 86.0895 13.416 86.0895 13.896V18H84.6855V11.574ZM99.2955 10.764H96.8115V14.976C96.8115 15.252 96.8175 15.51 96.8295 15.75C96.8415 15.978 96.8895 16.182 96.9735 16.362C97.0575 16.53 97.1835 16.668 97.3515 16.776C97.5195 16.872 97.7595 16.92 98.0715 16.92C98.2755 16.92 98.4855 16.896 98.7015 16.848C98.9175 16.8 99.1215 16.728 99.3135 16.632L99.3675 17.91C99.1275 18.018 98.8575 18.096 98.5575 18.144C98.2695 18.192 97.9935 18.216 97.7295 18.216C97.2255 18.216 96.8235 18.15 96.5235 18.018C96.2235 17.886 95.9895 17.7 95.8215 17.46C95.6535 17.22 95.5395 16.926 95.4795 16.578C95.4315 16.218 95.4075 15.822 95.4075 15.39V10.764H93.5715V9.576H95.4075V7.182H96.8115V9.576H99.2955V10.764ZM101.159 9.576H102.563V18H101.159V9.576ZM100.835 6.282C100.835 6.006 100.931 5.766 101.123 5.562C101.327 5.358 101.573 5.256 101.861 5.256C102.149 5.256 102.389 5.358 102.581 5.562C102.785 5.766 102.887 6.006 102.887 6.282C102.887 6.582 102.791 6.828 102.599 7.02C102.407 7.212 102.161 7.308 101.861 7.308C101.561 7.308 101.315 7.212 101.123 7.02C100.931 6.828 100.835 6.582 100.835 6.282ZM109.533 10.764H107.481V18H106.077V10.764H104.241V9.576H106.077V7.686C106.077 7.17 106.125 6.702 106.221 6.282C106.317 5.85 106.479 5.478 106.707 5.166C106.947 4.854 107.259 4.614 107.643 4.446C108.027 4.266 108.501 4.176 109.065 4.176C109.245 4.176 109.437 4.194 109.641 4.23C109.845 4.266 110.013 4.32 110.145 4.392L109.947 5.652C109.611 5.532 109.293 5.472 108.993 5.472C108.633 5.472 108.351 5.538 108.147 5.67C107.943 5.79 107.787 5.964 107.679 6.192C107.583 6.408 107.523 6.672 107.499 6.984C107.487 7.296 107.481 7.632 107.481 7.992V9.576H109.533V10.764ZM110.829 9.576H112.233V18H110.829V9.576ZM110.505 6.282C110.505 6.006 110.601 5.766 110.793 5.562C110.997 5.358 111.243 5.256 111.531 5.256C111.819 5.256 112.059 5.358 112.251 5.562C112.455 5.766 112.557 6.006 112.557 6.282C112.557 6.582 112.461 6.828 112.269 7.02C112.077 7.212 111.831 7.308 111.531 7.308C111.231 7.308 110.985 7.212 110.793 7.02C110.601 6.828 110.505 6.582 110.505 6.282ZM121.019 11.682C120.719 11.322 120.395 11.064 120.047 10.908C119.699 10.74 119.315 10.656 118.895 10.656C118.427 10.656 118.013 10.74 117.653 10.908C117.293 11.064 116.993 11.286 116.753 11.574C116.525 11.862 116.351 12.198 116.231 12.582C116.111 12.954 116.051 13.356 116.051 13.788C116.051 14.22 116.117 14.628 116.249 15.012C116.393 15.384 116.585 15.714 116.825 16.002C117.077 16.29 117.377 16.518 117.725 16.686C118.073 16.842 118.463 16.92 118.895 16.92C119.819 16.92 120.533 16.572 121.037 15.876L122.081 16.866C121.673 17.334 121.193 17.676 120.641 17.892C120.089 18.108 119.507 18.216 118.895 18.216C118.247 18.216 117.653 18.108 117.113 17.892C116.573 17.676 116.111 17.37 115.727 16.974C115.355 16.578 115.061 16.11 114.845 15.57C114.641 15.03 114.539 14.436 114.539 13.788C114.539 13.152 114.641 12.564 114.845 12.024C115.061 11.484 115.361 11.016 115.745 10.62C116.129 10.224 116.585 9.918 117.113 9.702C117.653 9.474 118.247 9.36 118.895 9.36C119.519 9.36 120.107 9.468 120.659 9.684C121.223 9.9 121.715 10.236 122.135 10.692L121.019 11.682Z" fill="#828BAD"/>
</g>
</g>
<path id="Subtract" fill-rule="evenodd" clip-rule="evenodd" d="M0 11L4.11989 4H11.9582L16.0606 11L15.3596 12.196H0.703939L0 11ZM1.3073 13.2212H14.7589L13.8388 14.7911H2.23127L1.3073 13.2212ZM2.83766 15.8214L4.11989 18H11.9582L13.235 15.8214H2.83766Z" fill="#2E3E77"/>
</g>
</svg>
