<svg width="173" height="33" viewBox="0 0 173 33" fill="none" xmlns="http://www.w3.org/2000/svg">
<g id="icon-medium">
<g id="Logo">
<g id="BeeScientific">
<path d="M37.112 7.008H42.296C43 7.008 43.688 7.08 44.36 7.224C45.032 7.368 45.632 7.608 46.16 7.944C46.688 8.264 47.112 8.688 47.432 9.216C47.768 9.744 47.936 10.4 47.936 11.184C47.936 12.176 47.664 13 47.12 13.656C46.592 14.296 45.872 14.752 44.96 15.024V15.072C45.504 15.12 46.008 15.264 46.472 15.504C46.952 15.728 47.36 16.024 47.696 16.392C48.048 16.76 48.32 17.192 48.512 17.688C48.704 18.168 48.8 18.688 48.8 19.248C48.8 20.192 48.6 20.968 48.2 21.576C47.816 22.184 47.304 22.672 46.664 23.04C46.04 23.392 45.328 23.64 44.528 23.784C43.744 23.928 42.96 24 42.176 24H37.112V7.008ZM39.128 14.208H41.912C42.392 14.208 42.856 14.176 43.304 14.112C43.768 14.048 44.184 13.92 44.552 13.728C44.92 13.52 45.216 13.24 45.44 12.888C45.664 12.52 45.776 12.04 45.776 11.448C45.776 10.92 45.672 10.496 45.464 10.176C45.256 9.84 44.976 9.576 44.624 9.384C44.288 9.192 43.896 9.064 43.448 9C43.016 8.92 42.576 8.88 42.128 8.88H39.128V14.208ZM39.128 22.128H42.536C43.032 22.128 43.52 22.08 44 21.984C44.496 21.872 44.936 21.704 45.32 21.48C45.72 21.24 46.04 20.936 46.28 20.568C46.52 20.184 46.64 19.72 46.64 19.176C46.64 18.584 46.52 18.088 46.28 17.688C46.056 17.288 45.752 16.968 45.368 16.728C45 16.488 44.568 16.32 44.072 16.224C43.592 16.128 43.096 16.08 42.584 16.08H39.128V22.128ZM61.9252 21.96C61.2532 22.824 60.5172 23.432 59.7172 23.784C58.9172 24.12 57.9892 24.288 56.9332 24.288C56.0532 24.288 55.2612 24.136 54.5572 23.832C53.8532 23.512 53.2532 23.088 52.7572 22.56C52.2772 22.032 51.9012 21.408 51.6292 20.688C51.3732 19.968 51.2452 19.2 51.2452 18.384C51.2452 17.52 51.3892 16.728 51.6772 16.008C51.9652 15.272 52.3652 14.648 52.8772 14.136C53.3892 13.608 53.9972 13.2 54.7012 12.912C55.4052 12.624 56.1732 12.48 57.0052 12.48C57.7892 12.48 58.5092 12.616 59.1652 12.888C59.8212 13.144 60.3812 13.528 60.8452 14.04C61.3252 14.536 61.6932 15.152 61.9492 15.888C62.2052 16.608 62.3332 17.432 62.3332 18.36V18.96H53.2612C53.2932 19.44 53.4052 19.904 53.5972 20.352C53.8052 20.784 54.0692 21.168 54.3892 21.504C54.7092 21.824 55.0852 22.08 55.5172 22.272C55.9492 22.464 56.4212 22.56 56.9332 22.56C57.7492 22.56 58.4372 22.416 58.9972 22.128C59.5572 21.84 60.0612 21.416 60.5092 20.856L61.9252 21.96ZM60.3172 17.376C60.2852 16.416 59.9732 15.648 59.3812 15.072C58.7892 14.496 57.9732 14.208 56.9332 14.208C55.8932 14.208 55.0532 14.496 54.4132 15.072C53.7732 15.648 53.3892 16.416 53.2612 17.376H60.3172ZM75.2611 21.96C74.5891 22.824 73.8531 23.432 73.0531 23.784C72.2531 24.12 71.3251 24.288 70.2691 24.288C69.3891 24.288 68.5971 24.136 67.8931 23.832C67.1891 23.512 66.5891 23.088 66.0931 22.56C65.6131 22.032 65.2371 21.408 64.9651 20.688C64.7091 19.968 64.5811 19.2 64.5811 18.384C64.5811 17.52 64.7251 16.728 65.0131 16.008C65.3011 15.272 65.7011 14.648 66.2131 14.136C66.7251 13.608 67.3331 13.2 68.0371 12.912C68.7411 12.624 69.5091 12.48 70.3411 12.48C71.1251 12.48 71.8451 12.616 72.5011 12.888C73.1571 13.144 73.7171 13.528 74.1811 14.04C74.6611 14.536 75.0291 15.152 75.2851 15.888C75.5411 16.608 75.6691 17.432 75.6691 18.36V18.96H66.5971C66.6291 19.44 66.7411 19.904 66.9331 20.352C67.1411 20.784 67.4051 21.168 67.7251 21.504C68.0451 21.824 68.4211 22.08 68.8531 22.272C69.2851 22.464 69.7571 22.56 70.2691 22.56C71.0851 22.56 71.7731 22.416 72.3331 22.128C72.8931 21.84 73.3971 21.416 73.8451 20.856L75.2611 21.96ZM73.6531 17.376C73.6211 16.416 73.3091 15.648 72.7171 15.072C72.1251 14.496 71.3091 14.208 70.2691 14.208C69.2291 14.208 68.3891 14.496 67.7491 15.072C67.1091 15.648 66.7251 16.416 66.5971 17.376H73.6531Z" fill="#2E3E77"/>
<path d="M86.9651 10.008C86.6291 9.464 86.1811 9.072 85.6211 8.832C85.0611 8.576 84.4771 8.448 83.8691 8.448C83.4211 8.448 82.9811 8.504 82.5491 8.616C82.1171 8.728 81.7251 8.896 81.3731 9.12C81.0371 9.344 80.7651 9.64 80.5571 10.008C80.3491 10.376 80.2451 10.808 80.2451 11.304C80.2451 11.688 80.3011 12.032 80.4131 12.336C80.5411 12.624 80.7411 12.888 81.0131 13.128C81.2851 13.368 81.6531 13.592 82.1171 13.8C82.5811 14.008 83.1491 14.216 83.8211 14.424C84.4771 14.632 85.1091 14.856 85.7171 15.096C86.3411 15.336 86.8851 15.64 87.3491 16.008C87.8291 16.376 88.2051 16.84 88.4771 17.4C88.7651 17.944 88.9091 18.632 88.9091 19.464C88.9091 20.312 88.7411 21.048 88.4051 21.672C88.0691 22.296 87.6211 22.816 87.0611 23.232C86.5171 23.632 85.8851 23.928 85.1651 24.12C84.4451 24.328 83.7011 24.432 82.9331 24.432C82.4371 24.432 81.9411 24.384 81.4451 24.288C80.9491 24.208 80.4691 24.08 80.0051 23.904C79.5571 23.712 79.1331 23.472 78.7331 23.184C78.3331 22.88 77.9891 22.512 77.7011 22.08L79.4291 20.664C79.7971 21.288 80.3091 21.76 80.9651 22.08C81.6211 22.4 82.3171 22.56 83.0531 22.56C83.4851 22.56 83.9171 22.496 84.3491 22.368C84.7971 22.24 85.1971 22.056 85.5491 21.816C85.9011 21.56 86.1891 21.248 86.4131 20.88C86.6371 20.512 86.7491 20.088 86.7491 19.608C86.7491 19.08 86.6611 18.656 86.4851 18.336C86.3091 18 86.0371 17.712 85.6691 17.472C85.3011 17.232 84.8371 17.016 84.2771 16.824C83.7171 16.632 83.0611 16.408 82.3091 16.152C81.7011 15.96 81.1411 15.744 80.6291 15.504C80.1171 15.248 79.6691 14.944 79.2851 14.592C78.9171 14.224 78.6211 13.792 78.3971 13.296C78.1891 12.784 78.0851 12.176 78.0851 11.472C78.0851 10.656 78.2451 9.944 78.5651 9.336C78.8851 8.728 79.3171 8.224 79.8611 7.824C80.4051 7.408 81.0211 7.096 81.7091 6.888C82.3971 6.68 83.1171 6.576 83.8691 6.576C84.8291 6.576 85.7011 6.728 86.4851 7.032C87.2851 7.32 87.9971 7.832 88.6211 8.568L86.9651 10.008ZM99.893 15.576C99.493 15.096 99.061 14.752 98.597 14.544C98.133 14.32 97.621 14.208 97.061 14.208C96.437 14.208 95.885 14.32 95.405 14.544C94.925 14.752 94.525 15.048 94.205 15.432C93.901 15.816 93.669 16.264 93.509 16.776C93.349 17.272 93.269 17.808 93.269 18.384C93.269 18.96 93.357 19.504 93.533 20.016C93.725 20.512 93.981 20.952 94.301 21.336C94.637 21.72 95.037 22.024 95.501 22.248C95.965 22.456 96.485 22.56 97.061 22.56C98.293 22.56 99.245 22.096 99.917 21.168L101.309 22.488C100.765 23.112 100.125 23.568 99.389 23.856C98.653 24.144 97.877 24.288 97.061 24.288C96.197 24.288 95.405 24.144 94.685 23.856C93.965 23.568 93.349 23.16 92.837 22.632C92.341 22.104 91.949 21.48 91.661 20.76C91.389 20.04 91.253 19.248 91.253 18.384C91.253 17.536 91.389 16.752 91.661 16.032C91.949 15.312 92.349 14.688 92.861 14.16C93.373 13.632 93.981 13.224 94.685 12.936C95.405 12.632 96.197 12.48 97.061 12.48C97.893 12.48 98.677 12.624 99.413 12.912C100.165 13.2 100.821 13.648 101.381 14.256L99.893 15.576ZM103.647 12.768H105.519V24H103.647V12.768ZM103.215 8.376C103.215 8.008 103.343 7.688 103.599 7.416C103.871 7.144 104.199 7.008 104.583 7.008C104.967 7.008 105.287 7.144 105.543 7.416C105.815 7.688 105.951 8.008 105.951 8.376C105.951 8.776 105.823 9.104 105.567 9.36C105.311 9.616 104.983 9.744 104.583 9.744C104.183 9.744 103.855 9.616 103.599 9.36C103.343 9.104 103.215 8.776 103.215 8.376ZM119.277 21.96C118.605 22.824 117.869 23.432 117.069 23.784C116.269 24.12 115.341 24.288 114.285 24.288C113.405 24.288 112.613 24.136 111.909 23.832C111.205 23.512 110.605 23.088 110.109 22.56C109.629 22.032 109.253 21.408 108.981 20.688C108.725 19.968 108.597 19.2 108.597 18.384C108.597 17.52 108.741 16.728 109.029 16.008C109.317 15.272 109.717 14.648 110.229 14.136C110.741 13.608 111.349 13.2 112.053 12.912C112.757 12.624 113.525 12.48 114.357 12.48C115.141 12.48 115.861 12.616 116.517 12.888C117.173 13.144 117.733 13.528 118.197 14.04C118.677 14.536 119.045 15.152 119.301 15.888C119.557 16.608 119.685 17.432 119.685 18.36V18.96H110.613C110.645 19.44 110.757 19.904 110.949 20.352C111.157 20.784 111.421 21.168 111.741 21.504C112.061 21.824 112.437 22.08 112.869 22.272C113.301 22.464 113.773 22.56 114.285 22.56C115.101 22.56 115.789 22.416 116.349 22.128C116.909 21.84 117.413 21.416 117.861 20.856L119.277 21.96ZM117.669 17.376C117.637 16.416 117.325 15.648 116.733 15.072C116.141 14.496 115.325 14.208 114.285 14.208C113.245 14.208 112.405 14.496 111.765 15.072C111.125 15.648 110.741 16.416 110.613 17.376H117.669ZM122.581 15.432C122.581 14.92 122.565 14.44 122.533 13.992C122.501 13.544 122.485 13.136 122.485 12.768H124.261C124.261 13.072 124.269 13.376 124.285 13.68C124.301 13.984 124.309 14.296 124.309 14.616H124.357C124.485 14.344 124.661 14.08 124.885 13.824C125.125 13.568 125.405 13.344 125.725 13.152C126.045 12.944 126.405 12.784 126.805 12.672C127.205 12.544 127.637 12.48 128.101 12.48C128.837 12.48 129.469 12.592 129.997 12.816C130.541 13.04 130.989 13.352 131.341 13.752C131.693 14.152 131.949 14.64 132.109 15.216C132.285 15.776 132.373 16.392 132.373 17.064V24H130.501V17.256C130.501 16.312 130.293 15.568 129.877 15.024C129.461 14.48 128.813 14.208 127.933 14.208C127.325 14.208 126.797 14.312 126.349 14.52C125.917 14.728 125.557 15.024 125.269 15.408C124.997 15.792 124.789 16.248 124.645 16.776C124.517 17.304 124.453 17.888 124.453 18.528V24H122.581V15.432ZM142.061 14.352H138.749V19.968C138.749 20.336 138.757 20.68 138.773 21C138.789 21.304 138.853 21.576 138.965 21.816C139.077 22.04 139.245 22.224 139.469 22.368C139.693 22.496 140.013 22.56 140.429 22.56C140.701 22.56 140.981 22.528 141.269 22.464C141.557 22.4 141.829 22.304 142.085 22.176L142.157 23.88C141.837 24.024 141.477 24.128 141.077 24.192C140.693 24.256 140.325 24.288 139.973 24.288C139.301 24.288 138.765 24.2 138.365 24.024C137.965 23.848 137.653 23.6 137.429 23.28C137.205 22.96 137.053 22.568 136.973 22.104C136.909 21.624 136.877 21.096 136.877 20.52V14.352H134.429V12.768H136.877V9.576H138.749V12.768H142.061V14.352ZM144.546 12.768H146.418V24H144.546V12.768ZM144.114 8.376C144.114 8.008 144.242 7.688 144.498 7.416C144.77 7.144 145.098 7.008 145.482 7.008C145.866 7.008 146.186 7.144 146.442 7.416C146.714 7.688 146.85 8.008 146.85 8.376C146.85 8.776 146.722 9.104 146.466 9.36C146.21 9.616 145.882 9.744 145.482 9.744C145.082 9.744 144.754 9.616 144.498 9.36C144.242 9.104 144.114 8.776 144.114 8.376ZM155.711 14.352H152.975V24H151.103V14.352H148.655V12.768H151.103V10.248C151.103 9.56 151.167 8.936 151.295 8.376C151.423 7.8 151.639 7.304 151.943 6.888C152.263 6.472 152.679 6.152 153.191 5.928C153.703 5.688 154.335 5.568 155.087 5.568C155.327 5.568 155.583 5.592 155.855 5.64C156.127 5.688 156.351 5.76 156.527 5.856L156.263 7.536C155.815 7.376 155.391 7.296 154.991 7.296C154.511 7.296 154.135 7.384 153.863 7.56C153.591 7.72 153.383 7.952 153.239 8.256C153.111 8.544 153.031 8.896 152.999 9.312C152.983 9.728 152.975 10.176 152.975 10.656V12.768H155.711V14.352ZM157.439 12.768H159.311V24H157.439V12.768ZM157.007 8.376C157.007 8.008 157.135 7.688 157.391 7.416C157.663 7.144 157.991 7.008 158.375 7.008C158.759 7.008 159.079 7.144 159.335 7.416C159.607 7.688 159.743 8.008 159.743 8.376C159.743 8.776 159.615 9.104 159.359 9.36C159.103 9.616 158.775 9.744 158.375 9.744C157.975 9.744 157.647 9.616 157.391 9.36C157.135 9.104 157.007 8.776 157.007 8.376ZM171.026 15.576C170.626 15.096 170.194 14.752 169.73 14.544C169.266 14.32 168.754 14.208 168.194 14.208C167.57 14.208 167.018 14.32 166.538 14.544C166.058 14.752 165.658 15.048 165.338 15.432C165.034 15.816 164.802 16.264 164.642 16.776C164.482 17.272 164.402 17.808 164.402 18.384C164.402 18.96 164.49 19.504 164.666 20.016C164.858 20.512 165.114 20.952 165.434 21.336C165.77 21.72 166.17 22.024 166.634 22.248C167.098 22.456 167.618 22.56 168.194 22.56C169.426 22.56 170.378 22.096 171.05 21.168L172.442 22.488C171.898 23.112 171.258 23.568 170.522 23.856C169.786 24.144 169.01 24.288 168.194 24.288C167.33 24.288 166.538 24.144 165.818 23.856C165.098 23.568 164.482 23.16 163.97 22.632C163.474 22.104 163.082 21.48 162.794 20.76C162.522 20.04 162.386 19.248 162.386 18.384C162.386 17.536 162.522 16.752 162.794 16.032C163.082 15.312 163.482 14.688 163.994 14.16C164.506 13.632 165.114 13.224 165.818 12.936C166.538 12.632 167.33 12.48 168.194 12.48C169.026 12.48 169.81 12.624 170.546 12.912C171.298 13.2 171.954 13.648 172.514 14.256L171.026 15.576Z" fill="#828BAD"/>
</g>
</g>
<path id="Subtract" fill-rule="evenodd" clip-rule="evenodd" d="M0 14L7.65123 1H22.208L29.8268 14L28.5251 16.2212H1.30731L0 14ZM2.42782 18.125H27.4093L25.7007 21.0405H4.14373L2.42782 18.125ZM5.26988 22.9539L7.65123 27H22.208L24.5793 22.9539H5.26988Z" fill="#2E3E77"/>
</g>
</svg>
