<svg width="291" height="55" viewBox="0 0 291 55" fill="none" xmlns="http://www.w3.org/2000/svg">
<path d="M64.52 11.68H73.16C74.3333 11.68 75.48 11.8 76.6 12.04C77.72 12.28 78.72 12.68 79.6 13.24C80.48 13.7733 81.1867 14.48 81.72 15.36C82.28 16.24 82.56 17.3333 82.56 18.64C82.56 20.2933 82.1067 21.6667 81.2 22.76C80.32 23.8267 79.12 24.5867 77.6 25.04V25.12C78.5067 25.2 79.3467 25.44 80.12 25.84C80.92 26.2133 81.6 26.7067 82.16 27.32C82.7467 27.9333 83.2 28.6533 83.52 29.48C83.84 30.28 84 31.1467 84 32.08C84 33.6533 83.6667 34.9467 83 35.96C82.36 36.9733 81.5067 37.7867 80.44 38.4C79.4 38.9867 78.2133 39.4 76.88 39.64C75.5733 39.88 74.2667 40 72.96 40H64.52V11.68ZM67.88 23.68H72.52C73.32 23.68 74.0933 23.6267 74.84 23.52C75.6133 23.4133 76.3067 23.2 76.92 22.88C77.5333 22.5333 78.0267 22.0667 78.4 21.48C78.7733 20.8667 78.96 20.0667 78.96 19.08C78.96 18.2 78.7867 17.4933 78.44 16.96C78.0933 16.4 77.6267 15.96 77.04 15.64C76.48 15.32 75.8267 15.1067 75.08 15C74.36 14.8667 73.6267 14.8 72.88 14.8H67.88V23.68ZM67.88 36.88H73.56C74.3867 36.88 75.2 36.8 76 36.64C76.8267 36.4533 77.56 36.1733 78.2 35.8C78.8667 35.4 79.4 34.8933 79.8 34.28C80.2 33.64 80.4 32.8667 80.4 31.96C80.4 30.9733 80.2 30.1467 79.8 29.48C79.4267 28.8133 78.92 28.28 78.28 27.88C77.6667 27.48 76.9467 27.2 76.12 27.04C75.32 26.88 74.4933 26.8 73.64 26.8H67.88V36.88ZM105.875 36.6C104.755 38.04 103.529 39.0533 102.195 39.64C100.862 40.2 99.3153 40.48 97.5553 40.48C96.0886 40.48 94.7686 40.2267 93.5953 39.72C92.422 39.1867 91.422 38.48 90.5953 37.6C89.7953 36.72 89.1686 35.68 88.7153 34.48C88.2886 33.28 88.0753 32 88.0753 30.64C88.0753 29.2 88.3153 27.88 88.7953 26.68C89.2753 25.4533 89.942 24.4133 90.7953 23.56C91.6486 22.68 92.662 22 93.8353 21.52C95.0086 21.04 96.2886 20.8 97.6753 20.8C98.982 20.8 100.182 21.0267 101.275 21.48C102.369 21.9067 103.302 22.5467 104.075 23.4C104.875 24.2267 105.489 25.2533 105.915 26.48C106.342 27.68 106.555 29.0533 106.555 30.6V31.6H91.4353C91.4886 32.4 91.6753 33.1733 91.9953 33.92C92.342 34.64 92.782 35.28 93.3153 35.84C93.8486 36.3733 94.4753 36.8 95.1953 37.12C95.9153 37.44 96.702 37.6 97.5553 37.6C98.9153 37.6 100.062 37.36 100.995 36.88C101.929 36.4 102.769 35.6933 103.515 34.76L105.875 36.6ZM103.195 28.96C103.142 27.36 102.622 26.08 101.635 25.12C100.649 24.16 99.2886 23.68 97.5553 23.68C95.822 23.68 94.422 24.16 93.3553 25.12C92.2886 26.08 91.6486 27.36 91.4353 28.96H103.195ZM128.102 36.6C126.982 38.04 125.755 39.0533 124.422 39.64C123.089 40.2 121.542 40.48 119.782 40.48C118.315 40.48 116.995 40.2267 115.822 39.72C114.649 39.1867 113.649 38.48 112.822 37.6C112.022 36.72 111.395 35.68 110.942 34.48C110.515 33.28 110.302 32 110.302 30.64C110.302 29.2 110.542 27.88 111.022 26.68C111.502 25.4533 112.169 24.4133 113.022 23.56C113.875 22.68 114.889 22 116.062 21.52C117.235 21.04 118.515 20.8 119.902 20.8C121.209 20.8 122.409 21.0267 123.502 21.48C124.595 21.9067 125.529 22.5467 126.302 23.4C127.102 24.2267 127.715 25.2533 128.142 26.48C128.569 27.68 128.782 29.0533 128.782 30.6V31.6H113.662C113.715 32.4 113.902 33.1733 114.222 33.92C114.569 34.64 115.009 35.28 115.542 35.84C116.075 36.3733 116.702 36.8 117.422 37.12C118.142 37.44 118.929 37.6 119.782 37.6C121.142 37.6 122.289 37.36 123.222 36.88C124.155 36.4 124.995 35.6933 125.742 34.76L128.102 36.6ZM125.422 28.96C125.369 27.36 124.849 26.08 123.862 25.12C122.875 24.16 121.515 23.68 119.782 23.68C118.049 23.68 116.649 24.16 115.582 25.12C114.515 26.08 113.875 27.36 113.662 28.96H125.422Z" fill="#2E3E77"/>
<path d="M147.608 16.68C147.048 15.7733 146.302 15.12 145.368 14.72C144.435 14.2933 143.462 14.08 142.448 14.08C141.702 14.08 140.968 14.1733 140.248 14.36C139.528 14.5467 138.875 14.8267 138.288 15.2C137.728 15.5733 137.275 16.0667 136.928 16.68C136.582 17.2933 136.408 18.0133 136.408 18.84C136.408 19.48 136.502 20.0533 136.688 20.56C136.902 21.04 137.235 21.48 137.688 21.88C138.142 22.28 138.755 22.6533 139.528 23C140.302 23.3467 141.248 23.6933 142.368 24.04C143.462 24.3867 144.515 24.76 145.528 25.16C146.568 25.56 147.475 26.0667 148.248 26.68C149.048 27.2933 149.675 28.0667 150.128 29C150.608 29.9067 150.848 31.0533 150.848 32.44C150.848 33.8533 150.568 35.08 150.008 36.12C149.448 37.16 148.702 38.0267 147.768 38.72C146.862 39.3867 145.808 39.88 144.608 40.2C143.408 40.5467 142.168 40.72 140.888 40.72C140.062 40.72 139.235 40.64 138.408 40.48C137.582 40.3467 136.782 40.1333 136.008 39.84C135.262 39.52 134.555 39.12 133.888 38.64C133.222 38.1333 132.648 37.52 132.168 36.8L135.048 34.44C135.662 35.48 136.515 36.2667 137.608 36.8C138.702 37.3333 139.862 37.6 141.088 37.6C141.808 37.6 142.528 37.4933 143.248 37.28C143.995 37.0667 144.662 36.76 145.248 36.36C145.835 35.9333 146.315 35.4133 146.688 34.8C147.062 34.1867 147.248 33.48 147.248 32.68C147.248 31.8 147.102 31.0933 146.808 30.56C146.515 30 146.062 29.52 145.448 29.12C144.835 28.72 144.062 28.36 143.128 28.04C142.195 27.72 141.102 27.3467 139.848 26.92C138.835 26.6 137.902 26.24 137.048 25.84C136.195 25.4133 135.448 24.9067 134.808 24.32C134.195 23.7067 133.702 22.9867 133.328 22.16C132.982 21.3067 132.808 20.2933 132.808 19.12C132.808 17.76 133.075 16.5733 133.608 15.56C134.142 14.5467 134.862 13.7067 135.768 13.04C136.675 12.3467 137.702 11.8267 138.848 11.48C139.995 11.1333 141.195 10.96 142.448 10.96C144.048 10.96 145.502 11.2133 146.808 11.72C148.142 12.2 149.328 13.0533 150.368 14.28L147.608 16.68ZM169.155 25.96C168.488 25.16 167.768 24.5867 166.995 24.24C166.222 23.8667 165.368 23.68 164.435 23.68C163.395 23.68 162.475 23.8667 161.675 24.24C160.875 24.5867 160.208 25.08 159.675 25.72C159.168 26.36 158.782 27.1067 158.515 27.96C158.248 28.7867 158.115 29.68 158.115 30.64C158.115 31.6 158.262 32.5067 158.555 33.36C158.875 34.1867 159.302 34.92 159.835 35.56C160.395 36.2 161.062 36.7067 161.835 37.08C162.608 37.4267 163.475 37.6 164.435 37.6C166.488 37.6 168.075 36.8267 169.195 35.28L171.515 37.48C170.608 38.52 169.542 39.28 168.315 39.76C167.088 40.24 165.795 40.48 164.435 40.48C162.995 40.48 161.675 40.24 160.475 39.76C159.275 39.28 158.248 38.6 157.395 37.72C156.568 36.84 155.915 35.8 155.435 34.6C154.982 33.4 154.755 32.08 154.755 30.64C154.755 29.2267 154.982 27.92 155.435 26.72C155.915 25.52 156.582 24.48 157.435 23.6C158.288 22.72 159.302 22.04 160.475 21.56C161.675 21.0533 162.995 20.8 164.435 20.8C165.822 20.8 167.128 21.04 168.355 21.52C169.608 22 170.702 22.7467 171.635 23.76L169.155 25.96ZM175.412 21.28H178.532V40H175.412V21.28ZM174.692 13.96C174.692 13.3467 174.905 12.8133 175.332 12.36C175.785 11.9067 176.332 11.68 176.972 11.68C177.612 11.68 178.145 11.9067 178.572 12.36C179.025 12.8133 179.252 13.3467 179.252 13.96C179.252 14.6267 179.039 15.1733 178.612 15.6C178.185 16.0267 177.639 16.24 176.972 16.24C176.305 16.24 175.759 16.0267 175.332 15.6C174.905 15.1733 174.692 14.6267 174.692 13.96ZM201.461 36.6C200.341 38.04 199.115 39.0533 197.781 39.64C196.448 40.2 194.901 40.48 193.141 40.48C191.675 40.48 190.355 40.2267 189.181 39.72C188.008 39.1867 187.008 38.48 186.181 37.6C185.381 36.72 184.755 35.68 184.301 34.48C183.875 33.28 183.661 32 183.661 30.64C183.661 29.2 183.901 27.88 184.381 26.68C184.861 25.4533 185.528 24.4133 186.381 23.56C187.235 22.68 188.248 22 189.421 21.52C190.595 21.04 191.875 20.8 193.261 20.8C194.568 20.8 195.768 21.0267 196.861 21.48C197.955 21.9067 198.888 22.5467 199.661 23.4C200.461 24.2267 201.075 25.2533 201.501 26.48C201.928 27.68 202.141 29.0533 202.141 30.6V31.6H187.021C187.075 32.4 187.261 33.1733 187.581 33.92C187.928 34.64 188.368 35.28 188.901 35.84C189.435 36.3733 190.061 36.8 190.781 37.12C191.501 37.44 192.288 37.6 193.141 37.6C194.501 37.6 195.648 37.36 196.581 36.88C197.515 36.4 198.355 35.6933 199.101 34.76L201.461 36.6ZM198.781 28.96C198.728 27.36 198.208 26.08 197.221 25.12C196.235 24.16 194.875 23.68 193.141 23.68C191.408 23.68 190.008 24.16 188.941 25.12C187.875 26.08 187.235 27.36 187.021 28.96H198.781ZM206.968 25.72C206.968 24.8667 206.941 24.0667 206.888 23.32C206.834 22.5733 206.808 21.8933 206.808 21.28H209.768C209.768 21.7867 209.781 22.2933 209.808 22.8C209.834 23.3067 209.848 23.8267 209.848 24.36H209.928C210.141 23.9067 210.434 23.4667 210.808 23.04C211.208 22.6133 211.674 22.24 212.208 21.92C212.741 21.5733 213.341 21.3067 214.008 21.12C214.674 20.9067 215.394 20.8 216.168 20.8C217.394 20.8 218.448 20.9867 219.328 21.36C220.234 21.7333 220.981 22.2533 221.568 22.92C222.154 23.5867 222.581 24.4 222.848 25.36C223.141 26.2933 223.288 27.32 223.288 28.44V40H220.168V28.76C220.168 27.1867 219.821 25.9467 219.128 25.04C218.434 24.1333 217.354 23.68 215.888 23.68C214.874 23.68 213.994 23.8533 213.248 24.2C212.528 24.5467 211.928 25.04 211.448 25.68C210.994 26.32 210.648 27.08 210.408 27.96C210.194 28.84 210.088 29.8133 210.088 30.88V40H206.968V25.72ZM239.434 23.92H233.914V33.28C233.914 33.8933 233.928 34.4667 233.954 35C233.981 35.5067 234.088 35.96 234.274 36.36C234.461 36.7333 234.741 37.04 235.114 37.28C235.488 37.4933 236.021 37.6 236.714 37.6C237.168 37.6 237.634 37.5467 238.114 37.44C238.594 37.3333 239.048 37.1733 239.474 36.96L239.594 39.8C239.061 40.04 238.461 40.2133 237.794 40.32C237.154 40.4267 236.541 40.48 235.954 40.48C234.834 40.48 233.941 40.3333 233.274 40.04C232.608 39.7467 232.088 39.3333 231.714 38.8C231.341 38.2667 231.088 37.6133 230.954 36.84C230.848 36.04 230.794 35.16 230.794 34.2V23.92H226.714V21.28H230.794V15.96H233.914V21.28H239.434V23.92ZM243.576 21.28H246.696V40H243.576V21.28ZM242.856 13.96C242.856 13.3467 243.069 12.8133 243.496 12.36C243.949 11.9067 244.496 11.68 245.136 11.68C245.776 11.68 246.309 11.9067 246.736 12.36C247.189 12.8133 247.416 13.3467 247.416 13.96C247.416 14.6267 247.203 15.1733 246.776 15.6C246.349 16.0267 245.803 16.24 245.136 16.24C244.469 16.24 243.923 16.0267 243.496 15.6C243.069 15.1733 242.856 14.6267 242.856 13.96ZM262.185 23.92H257.625V40H254.505V23.92H250.425V21.28H254.505V17.08C254.505 15.9333 254.612 14.8933 254.825 13.96C255.039 13 255.399 12.1733 255.905 11.48C256.439 10.7867 257.132 10.2533 257.985 9.88C258.839 9.48 259.892 9.28 261.145 9.28C261.545 9.28 261.972 9.32 262.425 9.4C262.879 9.48 263.252 9.6 263.545 9.76L263.105 12.56C262.359 12.2933 261.652 12.16 260.985 12.16C260.185 12.16 259.559 12.3067 259.105 12.6C258.652 12.8667 258.305 13.2533 258.065 13.76C257.852 14.24 257.719 14.8267 257.665 15.52C257.639 16.2133 257.625 16.96 257.625 17.76V21.28H262.185V23.92ZM265.065 21.28H268.185V40H265.065V21.28ZM264.345 13.96C264.345 13.3467 264.559 12.8133 264.985 12.36C265.439 11.9067 265.985 11.68 266.625 11.68C267.265 11.68 267.799 11.9067 268.225 12.36C268.679 12.8133 268.905 13.3467 268.905 13.96C268.905 14.6267 268.692 15.1733 268.265 15.6C267.839 16.0267 267.292 16.24 266.625 16.24C265.959 16.24 265.412 16.0267 264.985 15.6C264.559 15.1733 264.345 14.6267 264.345 13.96ZM287.71 25.96C287.043 25.16 286.323 24.5867 285.55 24.24C284.776 23.8667 283.923 23.68 282.99 23.68C281.95 23.68 281.03 23.8667 280.23 24.24C279.43 24.5867 278.763 25.08 278.23 25.72C277.723 26.36 277.336 27.1067 277.07 27.96C276.803 28.7867 276.67 29.68 276.67 30.64C276.67 31.6 276.816 32.5067 277.11 33.36C277.43 34.1867 277.856 34.92 278.39 35.56C278.95 36.2 279.616 36.7067 280.39 37.08C281.163 37.4267 282.03 37.6 282.99 37.6C285.043 37.6 286.63 36.8267 287.75 35.28L290.07 37.48C289.163 38.52 288.096 39.28 286.87 39.76C285.643 40.24 284.35 40.48 282.99 40.48C281.55 40.48 280.23 40.24 279.03 39.76C277.83 39.28 276.803 38.6 275.95 37.72C275.123 36.84 274.47 35.8 273.99 34.6C273.536 33.4 273.31 32.08 273.31 30.64C273.31 29.2267 273.536 27.92 273.99 26.72C274.47 25.52 275.136 24.48 275.99 23.6C276.843 22.72 277.856 22.04 279.03 21.56C280.23 21.0533 281.55 20.8 282.99 20.8C284.376 20.8 285.683 21.04 286.91 21.52C288.163 22 289.256 22.7467 290.19 23.76L287.71 25.96Z" fill="#2E3E77" fill-opacity="0.6"/>
<path fill-rule="evenodd" clip-rule="evenodd" d="M0 23.4849L12.0565 3H34.9946L47 23.4849L44.9488 26.9849H2.05995L0 23.4849ZM3.82562 29.9849H43.1906L40.4982 34.579H6.52948L3.82562 29.9849ZM8.30404 37.5941L12.0565 43.9698H34.9946L38.7312 37.5941H8.30404Z" fill="#2E3E77"/>
</svg>
