<svg width="32" height="31" viewBox="0 0 32 31" fill="none" xmlns="http://www.w3.org/2000/svg">
<path d="M4.11002 7.56195C1.48536 10.0301 0.00754325 13.3753 2.87972e-05 16.8655C-0.00748566 20.3557 1.45591 23.7065 4.06993 26.1846C7.01692 19.776 12.2694 14.4229 18.825 11.2375C13.1667 15.7389 9.3471 21.9485 8.0193 28.8046C13.2317 31.123 19.6469 30.2748 23.9571 26.2223C29.9514 20.5865 31.6354 5.22469 31.9962 1.00254C32.0088 0.868385 31.9899 0.733269 31.941 0.606702C31.892 0.480135 31.8142 0.365193 31.7129 0.269963C31.6116 0.174732 31.4893 0.101528 31.3547 0.0555002C31.2201 0.00947265 31.0764 -0.00825941 30.9337 0.00355134C26.443 0.342831 10.1043 1.92614 4.11002 7.56195Z" fill="#828BAD"/>
</svg>
