<svg width="122" height="25" viewBox="0 0 288 55" fill="none" xmlns="http://www.w3.org/2000/svg"><path d="M61.52 11.68h8.64c1.173 0 2.32.12 3.44.36s2.12.64 3 1.2a6.203 6.203 0 012.12 2.12c.56.88.84 1.973.84 3.28 0 1.653-.453 3.027-1.36 4.12-.88 1.067-2.08 1.827-3.6 2.28v.08c.907.08 1.747.32 2.52.72.8.373 1.48.867 2.04 1.48a6.462 6.462 0 011.36 2.16c.32.8.48 1.667.48 2.6 0 1.573-.333 2.867-1 3.88a7.249 7.249 0 01-2.56 2.44c-1.04.587-2.227 1-3.56 1.24-1.307.24-2.613.36-3.92.36h-8.44V11.68zm3.36 12h4.64c.8 0 1.573-.053 2.32-.16a6.333 6.333 0 002.08-.64 4.141 4.141 0 001.48-1.4c.373-.613.56-1.413.56-2.4 0-.88-.173-1.587-.52-2.12-.347-.56-.813-1-1.4-1.32-.56-.32-1.213-.533-1.96-.64a12.06 12.06 0 00-2.2-.2h-5v8.88zm0 13.2h5.68c.827 0 1.64-.08 2.44-.24a7.709 7.709 0 002.2-.84 4.86 4.86 0 001.6-1.52c.4-.64.6-1.413.6-2.32 0-.987-.2-1.813-.6-2.48a4.376 4.376 0 00-1.52-1.6c-.613-.4-1.333-.68-2.16-.84-.8-.16-1.627-.24-2.48-.24h-5.76v10.08zm37.995-.28c-1.12 1.44-2.346 2.453-3.68 3.04-1.333.56-2.88.84-4.64.84-1.466 0-2.786-.253-3.96-.76-1.173-.533-2.173-1.24-3-2.12-.8-.88-1.426-1.92-1.88-3.12-.426-1.2-.64-2.48-.64-3.84 0-1.44.24-2.76.72-3.96.48-1.227 1.147-2.267 2-3.12a8.847 8.847 0 013.04-2.04c1.174-.48 2.454-.72 3.84-.72 1.307 0 2.507.227 3.6.68a7.308 7.308 0 012.8 1.92c.8.827 1.414 1.853 1.84 3.08.427 1.2.64 2.573.64 4.12v1h-15.12c.054.8.24 1.573.56 2.32a7.45 7.45 0 001.32 1.92 6.18 6.18 0 001.88 1.28c.72.32 1.507.48 2.36.48 1.36 0 2.507-.24 3.44-.72.934-.48 1.774-1.187 2.52-2.12l2.36 1.84zm-2.68-7.64c-.053-1.6-.573-2.88-1.56-3.84-.986-.96-2.346-1.44-4.08-1.44-1.733 0-3.133.48-4.2 1.44-1.066.96-1.706 2.24-1.92 3.84h11.76zm24.907 7.64c-1.12 1.44-2.347 2.453-3.68 3.04-1.333.56-2.88.84-4.64.84-1.467 0-2.787-.253-3.96-.76-1.173-.533-2.173-1.24-3-2.12-.8-.88-1.427-1.92-1.88-3.12a11.37 11.37 0 01-.64-3.84c0-1.44.24-2.76.72-3.96.48-1.227 1.147-2.267 2-3.12a8.847 8.847 0 013.04-2.04c1.173-.48 2.453-.72 3.84-.72 1.307 0 2.507.227 3.6.68a7.311 7.311 0 012.8 1.92c.8.827 1.413 1.853 1.84 3.08.427 1.2.64 2.573.64 4.12v1h-15.12c.053.8.24 1.573.56 2.32.347.72.787 1.36 1.32 1.92.533.533 1.16.96 1.88 1.28.72.32 1.507.48 2.36.48 1.36 0 2.507-.24 3.44-.72.933-.48 1.773-1.187 2.52-2.12l2.36 1.84zm-2.68-7.64c-.053-1.6-.573-2.88-1.56-3.84-.987-.96-2.347-1.44-4.08-1.44s-3.133.48-4.2 1.44c-1.067.96-1.707 2.24-1.92 3.84h11.76z" fill="#2E3E77"/><path d="M144.608 16.68c-.56-.907-1.306-1.56-2.24-1.96a6.942 6.942 0 00-2.92-.64c-.746 0-1.48.093-2.2.28a6.81 6.81 0 00-1.96.84 4.278 4.278 0 00-1.36 1.48c-.346.613-.52 1.333-.52 2.16 0 .64.094 1.213.28 1.72.214.48.547.92 1 1.32.454.4 1.067.773 1.84 1.12.774.347 1.72.693 2.84 1.04 1.094.347 2.147.72 3.16 1.12 1.04.4 1.947.907 2.72 1.52a6.398 6.398 0 011.88 2.32c.48.907.72 2.053.72 3.44 0 1.413-.28 2.64-.84 3.68a7.799 7.799 0 01-2.24 2.6c-.906.667-1.96 1.16-3.16 1.48a13.335 13.335 0 01-6.2.28 12.273 12.273 0 01-2.4-.64c-.746-.32-1.453-.72-2.12-1.2a7.563 7.563 0 01-1.72-1.84l2.88-2.36a5.927 5.927 0 002.56 2.36 7.84 7.84 0 003.48.8c.72 0 1.44-.107 2.16-.32a6.86 6.86 0 002-.92 5.347 5.347 0 001.44-1.56c.374-.613.56-1.32.56-2.12 0-.88-.146-1.587-.44-2.12-.293-.56-.746-1.04-1.36-1.44-.613-.4-1.386-.76-2.32-1.08-.933-.32-2.026-.693-3.28-1.12a22.772 22.772 0 01-2.8-1.08 9.735 9.735 0 01-2.24-1.52 7.25 7.25 0 01-1.48-2.16c-.346-.853-.52-1.867-.52-3.04 0-1.36.267-2.547.8-3.56a7.323 7.323 0 012.16-2.52 9.6 9.6 0 013.08-1.56 12.374 12.374 0 013.6-.52c1.6 0 3.054.253 4.36.76 1.334.48 2.52 1.333 3.56 2.56l-2.76 2.4zm21.547 9.28c-.667-.8-1.387-1.373-2.16-1.72-.773-.373-1.627-.56-2.56-.56-1.04 0-1.96.187-2.76.56-.8.347-1.467.84-2 1.48a6.87 6.87 0 00-1.16 2.24c-.267.827-.4 1.72-.4 2.68 0 .96.147 1.867.44 2.72.32.827.747 1.56 1.28 2.2a6.229 6.229 0 002 1.52c.773.347 1.64.52 2.6.52 2.053 0 3.64-.773 4.76-2.32l2.32 2.2c-.907 1.04-1.973 1.8-3.2 2.28-1.227.48-2.52.72-3.88.72-1.44 0-2.76-.24-3.96-.72a8.76 8.76 0 01-3.08-2.04c-.827-.88-1.48-1.92-1.96-3.12-.453-1.2-.68-2.52-.68-3.96 0-1.413.227-2.72.68-3.92a9.496 9.496 0 012-3.12 8.847 8.847 0 013.04-2.04c1.2-.507 2.52-.76 3.96-.76 1.387 0 2.693.24 3.92.72a8.586 8.586 0 013.28 2.24l-2.48 2.2zm6.257-4.68h3.12V40h-3.12V21.28zm-.72-7.32a2.257 2.257 0 012.28-2.28c.64 0 1.173.227 1.6.68.453.453.68.987.68 1.6 0 .667-.213 1.213-.64 1.64-.427.427-.973.64-1.64.64-.667 0-1.213-.213-1.64-.64-.427-.427-.64-.973-.64-1.64zm26.769 22.64c-1.12 1.44-2.346 2.453-3.68 3.04-1.333.56-2.88.84-4.64.84-1.466 0-2.786-.253-3.96-.76-1.173-.533-2.173-1.24-3-2.12-.8-.88-1.426-1.92-1.88-3.12-.426-1.2-.64-2.48-.64-3.84 0-1.44.24-2.76.72-3.96.48-1.227 1.147-2.267 2-3.12a8.857 8.857 0 013.04-2.04c1.174-.48 2.454-.72 3.84-.72 1.307 0 2.507.227 3.6.68a7.303 7.303 0 012.8 1.92c.8.827 1.414 1.853 1.84 3.08.427 1.2.64 2.573.64 4.12v1h-15.12c.054.8.24 1.573.56 2.32.347.72.787 1.36 1.32 1.92.534.533 1.16.96 1.88 1.28.72.32 1.507.48 2.36.48 1.36 0 2.507-.24 3.44-.72.934-.48 1.774-1.187 2.52-2.12l2.36 1.84zm-2.68-7.64c-.053-1.6-.573-2.88-1.56-3.84-.986-.96-2.346-1.44-4.08-1.44-1.733 0-3.133.48-4.2 1.44-1.066.96-1.706 2.24-1.92 3.84h11.76zm8.187-3.24c0-.853-.027-1.653-.08-2.4a28.449 28.449 0 01-.08-2.04h2.96c0 .507.013 1.013.04 1.52.026.507.04 1.027.04 1.56h.08c.213-.453.506-.893.88-1.32.4-.427.866-.8 1.4-1.12a6.48 6.48 0 011.8-.8 7.045 7.045 0 012.16-.32c1.226 0 2.28.187 3.16.56.906.373 1.653.893 2.24 1.56.586.667 1.013 1.48 1.28 2.44.293.933.44 1.96.44 3.08V40h-3.12V28.76c0-1.573-.347-2.813-1.04-3.72-.694-.907-1.774-1.36-3.24-1.36-1.014 0-1.894.173-2.64.52-.72.347-1.32.84-1.8 1.48-.454.64-.8 1.4-1.04 2.28-.214.88-.32 1.853-.32 2.92V40h-3.12V25.72zm32.466-1.8h-5.52v9.36c0 .613.014 1.187.04 1.72.027.507.134.96.32 1.36.187.373.467.68.84.92.374.213.907.32 1.6.32.454 0 .92-.053 1.4-.16.48-.107.934-.267 1.36-.48l.12 2.84a7.102 7.102 0 01-1.8.52c-.64.107-1.253.16-1.84.16-1.12 0-2.013-.147-2.68-.44-.666-.293-1.186-.707-1.56-1.24-.373-.533-.626-1.187-.76-1.96-.106-.8-.16-1.68-.16-2.64V23.92h-4.08v-2.64h4.08v-5.32h3.12v5.32h5.52v2.64zm4.142-2.64h3.12V40h-3.12V21.28zm-.72-7.32a2.257 2.257 0 012.28-2.28c.64 0 1.173.227 1.6.68.453.453.68.987.68 1.6 0 .667-.213 1.213-.64 1.64-.427.427-.973.64-1.64.64-.667 0-1.213-.213-1.64-.64-.427-.427-.64-.973-.64-1.64zm19.329 9.96h-4.56V40h-3.12V23.92h-4.08v-2.64h4.08v-4.2c0-1.147.107-2.187.32-3.12.214-.96.574-1.787 1.08-2.48.534-.693 1.227-1.227 2.08-1.6.854-.4 1.907-.6 3.16-.6.4 0 .827.04 1.28.12.454.08.827.2 1.12.36l-.44 2.8c-.746-.267-1.453-.4-2.12-.4-.8 0-1.426.147-1.88.44-.453.267-.8.653-1.04 1.16-.213.48-.346 1.067-.4 1.76-.026.693-.04 1.44-.04 2.24v3.52h4.56v2.64zm2.88-2.64h3.12V40h-3.12V21.28zm-.72-7.32c0-.613.214-1.147.64-1.6.454-.453 1-.68 1.64-.68.64 0 1.174.227 1.6.68.454.453.68.987.68 1.6 0 .667-.213 1.213-.64 1.64-.426.427-.973.64-1.64.64-.666 0-1.213-.213-1.64-.64-.426-.427-.64-.973-.64-1.64zm23.365 12c-.667-.8-1.387-1.373-2.16-1.72-.774-.373-1.627-.56-2.56-.56-1.04 0-1.96.187-2.76.56-.8.347-1.467.84-2 1.48a6.851 6.851 0 00-1.16 2.24c-.267.827-.4 1.72-.4 2.68 0 .96.146 1.867.44 2.72.32.827.746 1.56 1.28 2.2a6.218 6.218 0 002 1.52c.773.347 1.64.52 2.6.52 2.053 0 3.64-.773 4.76-2.32l2.32 2.2c-.907 1.04-1.974 1.8-3.2 2.28-1.227.48-2.52.72-3.88.72-1.44 0-2.76-.24-3.96-.72a8.76 8.76 0 01-3.08-2.04c-.827-.88-1.48-1.92-1.96-3.12-.454-1.2-.68-2.52-.68-3.96 0-1.413.226-2.72.68-3.92a9.48 9.48 0 012-3.12 8.838 8.838 0 013.04-2.04c1.2-.507 2.52-.76 3.96-.76 1.386 0 2.693.24 3.92.72a8.593 8.593 0 013.28 2.24l-2.48 2.2z" fill="#2E3E77" fill-opacity=".6"/><path d="M20.485 0L40.97 12.056v22.939L20.485 47 0 34.995V12.057L20.485 0z" fill="#2E3E77"/><path fill="#fff" d="M0 23.741h40.97v3.015H0zM0 29.594h40.97v3.015H0z"/></svg>