<svg width="50" height="50" viewBox="0 0 50 50" fill="none" xmlns="http://www.w3.org/2000/svg">
<g clip-path="url(#clip0)">
<path d="M22.5001 27.925V17.5H27.5001V27.925C29.1682 28.5147 30.574 29.6752 31.4692 31.2012C32.3644 32.7272 32.6913 34.5206 32.3921 36.2643C32.093 38.0081 31.187 39.5899 29.8343 40.7303C28.4816 41.8706 26.7694 42.4961 25.0001 42.4961C23.2309 42.4961 21.5187 41.8706 20.166 40.7303C18.8133 39.5899 17.9073 38.0081 17.6082 36.2643C17.309 34.5206 17.6359 32.7272 18.5311 31.2012C19.4263 29.6752 20.8321 28.5147 22.5001 27.925ZM20.0001 26.35C18.0937 27.4507 16.6038 29.1496 15.7613 31.1834C14.9189 33.2172 14.7711 35.4721 15.3409 37.5984C15.9106 39.7248 17.1661 41.6037 18.9125 42.9438C20.659 44.2839 22.7988 45.0103 25.0001 45.0103C27.2015 45.0103 29.3413 44.2839 31.0878 42.9438C32.8342 41.6037 34.0897 39.7248 34.6594 37.5984C35.2291 35.4721 35.0814 33.2172 34.2389 31.1834C33.3965 29.1496 31.9066 27.4507 30.0001 26.35V10C30.0001 8.67392 29.4734 7.40215 28.5357 6.46447C27.598 5.52678 26.3262 5 25.0001 5C23.6741 5 22.4023 5.52678 21.4646 6.46447C20.5269 7.40215 20.0001 8.67392 20.0001 10V26.325V26.35ZM15.0001 23.825V10C15.0001 7.34784 16.0537 4.8043 17.9291 2.92893C19.8044 1.05357 22.348 0 25.0001 0C27.6523 0 30.1958 1.05357 32.0712 2.92893C33.9466 4.8043 35.0001 7.34784 35.0001 10V23.825C37.2759 25.8448 38.8824 28.51 39.6057 31.4656C40.329 34.4212 40.1347 37.527 39.0488 40.3695C37.9628 43.2119 36.0368 45.6561 33.527 47.3766C31.0173 49.0971 28.043 50.0121 25.0001 50C21.9635 49.9988 18.9987 49.0759 16.4977 47.3535C13.9968 45.631 12.0776 43.19 10.9939 40.3533C9.91014 37.5166 9.71289 34.4177 10.4282 31.4665C11.1436 28.5153 12.7378 25.8507 15.0001 23.825Z" fill="#959CB9"/>
</g>
<defs>
<clipPath id="clip0">
<rect width="50" height="50" fill="white"/>
</clipPath>
</defs>
</svg>
