<svg width="60" height="60" viewBox="0 0 60 60" fill="none" xmlns="http://www.w3.org/2000/svg">
<path d="M36.25 42.5C36.25 45.9518 33.4517 48.75 30 48.75C26.5482 48.75 23.75 45.9518 23.75 42.5C23.75 40.187 25.0074 38.169 26.875 37.0882V26.875C26.875 25.1491 28.2741 23.75 30 23.75C31.7258 23.75 33.125 25.1491 33.125 26.875V37.0882C34.9925 38.169 36.25 40.187 36.25 42.5ZM39.375 34.2331C41.3195 36.4365 42.5 39.3302 42.5 42.5C42.5 49.4039 36.904 55 30 55C29.9708 55 29.9405 54.9999 29.9112 54.9997C23.0458 54.9521 17.4651 49.3004 17.5002 42.4349C17.5162 39.2905 18.6938 36.4214 20.625 34.2331V14.375C20.625 9.19736 24.8223 5 30 5C35.1776 5 39.375 9.19736 39.375 14.375V34.2331ZM37.8125 42.5C37.8125 39.1466 35.9209 37.4033 34.6875 36.0057V14.375C34.6875 11.7903 32.5846 9.6875 30 9.6875C27.4153 9.6875 25.3125 11.7903 25.3125 14.375V36.0057C24.0691 37.4146 22.2046 39.1404 22.1876 42.4588C22.1657 46.7436 25.6605 50.2826 29.9437 50.3123L30 50.3125C34.3078 50.3125 37.8125 46.8078 37.8125 42.5Z" fill="#959CB9"/>
</svg>
