<svg width="31" height="32" viewBox="0 0 31 32" fill="none" xmlns="http://www.w3.org/2000/svg">
<path d="M29.9941 27.4886C28.6539 26.4002 25.0858 23.3939 21.7625 19.7812C19.5537 17.3786 18.6142 14.9734 16.9396 13.1526C15.4229 11.5036 14.0433 10.5426 14.0433 10.5426L13.6548 10.965L11.0301 8.11173L12.0439 7.00937C12.1263 6.91882 12.1722 6.79826 12.1722 6.67284C12.1722 6.54743 12.1263 6.42687 12.0439 6.33632L11.8345 6.1086C11.8355 6.10753 14.8183 1.87621 18.5899 3.04631C19.028 3.18337 19.4186 3.41643 19.5294 3.2975C19.6801 3.1343 19.1059 2.50712 18.7695 2.14447C13.9983 -3.00201 8.7353 2.73325 8.73277 2.73592L8.5471 2.53379C8.50714 2.48981 8.45916 2.45482 8.40604 2.43091C8.35291 2.407 8.29575 2.39467 8.23799 2.39467C8.18022 2.39467 8.12306 2.407 8.06994 2.43091C8.01681 2.45482 7.96883 2.48981 7.92888 2.53379L3.25478 7.61521C3.17247 7.70576 3.12652 7.82632 3.12652 7.95173C3.12652 8.07714 3.17247 8.19771 3.25478 8.28826C3.25478 8.28826 3.82696 9.34368 2.32644 9.53354C1.72238 9.61088 1.34396 9.75434 1.12946 9.94366C0.794619 10.2997 0.460886 10.6568 0.128263 11.0151C0.0459521 11.1056 0 11.2262 0 11.3516C0 11.477 0.0459521 11.5976 0.128263 11.6881L3.62612 15.4917C3.66612 15.5357 3.71414 15.5707 3.76731 15.5946C3.82047 15.6186 3.87768 15.6309 3.93548 15.6309C3.99329 15.6309 4.05049 15.6186 4.10366 15.5946C4.15682 15.5707 4.20485 15.5357 4.24485 15.4917C4.24485 15.4917 5.20911 14.4304 5.22985 14.4027C5.40338 14.1691 5.53593 13.7585 5.60574 13.1014C5.7818 11.4695 6.75112 12.0924 6.75112 12.0924C6.79109 12.1365 6.83913 12.1717 6.89235 12.1957C6.94557 12.2197 7.00285 12.2321 7.06074 12.2321C7.11862 12.2321 7.17591 12.2197 7.22912 12.1957C7.28234 12.1717 7.33039 12.1365 7.37035 12.0924L8.3842 10.99L11.0078 13.8427L10.6193 14.2656C10.6193 14.2656 11.5036 15.7659 13.0203 17.4149C14.6944 19.2351 16.9072 20.2564 19.1166 22.659C22.4389 26.2716 25.2036 30.1504 26.2064 31.608C26.5848 32.1567 26.645 32.1061 27.1069 31.6032L28.5482 30.0363L29.9885 28.4699C30.4514 27.9654 30.499 27.9004 29.9941 27.4886Z" fill="#828BAD"/>
<path d="M16.1929 11.0344C16.6271 11.4479 17.0484 11.8762 17.4561 12.3186C18.2615 13.1943 18.9354 14.174 19.6108 15.2199L24.1346 10.4504C24.9735 10.6666 25.8511 10.6513 26.6827 10.406C27.5143 10.1608 28.272 9.69384 28.8828 9.05023C29.4935 8.40662 29.9367 7.60803 30.1696 6.73142C30.4026 5.85481 30.4174 4.92973 30.2126 4.04533L26.1067 8.37371L23.1926 7.55081L22.4115 4.47732L26.5165 0.151602C25.6777 -0.064736 24.8003 -0.0493037 23.9689 0.196407C23.1375 0.442117 22.3803 0.909793 21.7705 1.55422C21.1597 2.19728 20.7163 2.9954 20.4832 3.87161C20.2501 4.74782 20.235 5.67258 20.4395 6.55671L16.1929 11.0344Z" fill="#828BAD"/>
<path d="M12.3892 17.8291C11.9553 17.3568 11.537 16.8689 11.135 16.3662L6.21908 21.549C5.38041 21.3329 4.50305 21.3484 3.67171 21.594C2.84038 21.8396 2.08315 22.307 1.47315 22.951C-0.491301 25.0203 -0.490795 28.377 1.47315 30.4468C1.93987 30.9392 2.49407 31.3298 3.10406 31.5962C3.71405 31.8627 4.36787 31.9999 5.02817 31.9999C5.68847 31.9999 6.3423 31.8627 6.95229 31.5962C7.56227 31.3298 8.11647 30.9392 8.5832 30.4468C9.19406 29.8033 9.63742 29.0048 9.87055 28.1283C10.1037 27.2517 10.1187 26.3266 9.91424 25.4422L14.9754 20.1074C14.0445 19.3938 13.1708 18.6787 12.3892 17.8291ZM5.8093 29.7711L2.89475 28.9476L2.11413 25.8747L4.24806 23.6268L7.1621 24.4486L7.94272 27.5221L5.8093 29.7711Z" fill="#828BAD"/>
</svg>
