<svg width="40" height="40" viewBox="0 0 40 40" fill="none" xmlns="http://www.w3.org/2000/svg">
<path d="M5.13753 10.0572C1.8567 13.3397 0.00942907 17.7888 3.59965e-05 22.4306C-0.00935707 27.0725 1.81989 31.529 5.08741 34.8248C8.77116 26.3015 15.3367 19.1821 23.5312 14.9455C16.4583 20.9323 11.6839 29.1909 10.0241 38.3093C16.5396 41.3927 24.5586 40.2647 29.9464 34.8749C37.4392 27.3795 39.5442 6.94869 39.9953 1.33335C40.011 1.15493 39.9874 0.975226 39.9262 0.806896C39.865 0.638566 39.7677 0.485696 39.6411 0.359043C39.5145 0.232389 39.3617 0.135029 39.1934 0.0738136C39.0251 0.0125983 38.8455 -0.0109848 38.6671 0.00472318C33.0538 0.455955 12.6303 2.56171 5.13753 10.0572Z" fill="#6F6F6F"/>
</svg>
